<svg height="2375.75" version="1.1" width="1905.625" xmlns="http://www.w3.org/2000/svg" xmlns:xlink="http://www.w3.org/1999/xlink" style="overflow: hidden; position: relative; left: -0.900024px;" viewBox="0 0 1905.625 2375.75" preserveAspectRatio="xMidYMid meet"><desc>Created with Raphaël @@VERSION</desc><defs><path stroke-linecap="round" d="M5,0 0,2.5 5,5z" id="raphael-marker-block"></path><marker id="raphael-marker-endblock33-obj213" markerHeight="3" markerWidth="3" orient="auto" refX="1.5" refY="1.5"><use xlink:href="#raphael-marker-block" transform="rotate(180 1.5 1.5) scale(0.6,0.6)" stroke-width="1.6667" fill="black" stroke="none"></use></marker><marker id="raphael-marker-endblock33-obj214" markerHeight="3" markerWidth="3" orient="auto" refX="1.5" refY="1.5"><use xlink:href="#raphael-marker-block" transform="rotate(180 1.5 1.5) scale(0.6,0.6)" stroke-width="1.6667" fill="black" stroke="none"></use></marker><marker id="raphael-marker-endblock33-obj215" markerHeight="3" markerWidth="3" orient="auto" refX="1.5" refY="1.5"><use xlink:href="#raphael-marker-block" transform="rotate(180 1.5 1.5) scale(0.6,0.6)" stroke-width="1.6667" fill="black" stroke="none"></use></marker><marker id="raphael-marker-endblock33-obj216" markerHeight="3" markerWidth="3" orient="auto" refX="1.5" refY="1.5"><use xlink:href="#raphael-marker-block" transform="rotate(180 1.5 1.5) scale(0.6,0.6)" stroke-width="1.6667" fill="black" stroke="none"></use></marker><marker id="raphael-marker-endblock33-obj218" markerHeight="3" markerWidth="3" orient="auto" refX="1.5" refY="1.5"><use xlink:href="#raphael-marker-block" transform="rotate(180 1.5 1.5) scale(0.6,0.6)" stroke-width="1.6667" fill="black" stroke="none"></use></marker><marker id="raphael-marker-endblock33-obj220" markerHeight="3" markerWidth="3" orient="auto" refX="1.5" refY="1.5"><use xlink:href="#raphael-marker-block" transform="rotate(180 1.5 1.5) scale(0.6,0.6)" stroke-width="1.6667" fill="black" stroke="none"></use></marker><marker id="raphael-marker-endblock33-obj221" markerHeight="3" markerWidth="3" orient="auto" refX="1.5" refY="1.5"><use xlink:href="#raphael-marker-block" transform="rotate(180 1.5 1.5) scale(0.6,0.6)" stroke-width="1.6667" fill="black" stroke="none"></use></marker><marker id="raphael-marker-endblock33-obj222" markerHeight="3" markerWidth="3" orient="auto" refX="1.5" refY="1.5"><use xlink:href="#raphael-marker-block" transform="rotate(180 1.5 1.5) scale(0.6,0.6)" stroke-width="1.6667" fill="black" stroke="none"></use></marker><marker id="raphael-marker-endblock33-obj223" markerHeight="3" markerWidth="3" orient="auto" refX="1.5" refY="1.5"><use xlink:href="#raphael-marker-block" transform="rotate(180 1.5 1.5) scale(0.6,0.6)" stroke-width="1.6667" fill="black" stroke="none"></use></marker><marker id="raphael-marker-endblock33-obj225" markerHeight="3" markerWidth="3" orient="auto" refX="1.5" refY="1.5"><use xlink:href="#raphael-marker-block" transform="rotate(180 1.5 1.5) scale(0.6,0.6)" stroke-width="1.6667" fill="black" stroke="none"></use></marker><marker id="raphael-marker-endblock33-obj227" markerHeight="3" markerWidth="3" orient="auto" refX="1.5" refY="1.5"><use xlink:href="#raphael-marker-block" transform="rotate(180 1.5 1.5) scale(0.6,0.6)" stroke-width="1.6667" fill="black" stroke="none"></use></marker><marker id="raphael-marker-endblock33-obj228" markerHeight="3" markerWidth="3" orient="auto" refX="1.5" refY="1.5"><use xlink:href="#raphael-marker-block" transform="rotate(180 1.5 1.5) scale(0.6,0.6)" stroke-width="1.6667" fill="black" stroke="none"></use></marker><marker id="raphael-marker-endblock33-obj230" markerHeight="3" markerWidth="3" orient="auto" refX="1.5" refY="1.5"><use xlink:href="#raphael-marker-block" transform="rotate(180 1.5 1.5) scale(0.6,0.6)" stroke-width="1.6667" fill="black" stroke="none"></use></marker><marker id="raphael-marker-endblock33-obj232" markerHeight="3" markerWidth="3" orient="auto" refX="1.5" refY="1.5"><use xlink:href="#raphael-marker-block" transform="rotate(180 1.5 1.5) scale(0.6,0.6)" stroke-width="1.6667" fill="black" stroke="none"></use></marker><marker id="raphael-marker-endblock33-obj233" markerHeight="3" markerWidth="3" orient="auto" refX="1.5" refY="1.5"><use xlink:href="#raphael-marker-block" transform="rotate(180 1.5 1.5) scale(0.6,0.6)" stroke-width="1.6667" fill="black" stroke="none"></use></marker><marker id="raphael-marker-endblock33-obj234" markerHeight="3" markerWidth="3" orient="auto" refX="1.5" refY="1.5"><use xlink:href="#raphael-marker-block" transform="rotate(180 1.5 1.5) scale(0.6,0.6)" stroke-width="1.6667" fill="black" stroke="none"></use></marker><marker id="raphael-marker-endblock33-obj236" markerHeight="3" markerWidth="3" orient="auto" refX="1.5" refY="1.5"><use xlink:href="#raphael-marker-block" transform="rotate(180 1.5 1.5) scale(0.6,0.6)" stroke-width="1.6667" fill="black" stroke="none"></use></marker><marker id="raphael-marker-endblock33-obj238" markerHeight="3" markerWidth="3" orient="auto" refX="1.5" refY="1.5"><use xlink:href="#raphael-marker-block" transform="rotate(180 1.5 1.5) scale(0.6,0.6)" stroke-width="1.6667" fill="black" stroke="none"></use></marker><marker id="raphael-marker-endblock33-obj239" markerHeight="3" markerWidth="3" orient="auto" refX="1.5" refY="1.5"><use xlink:href="#raphael-marker-block" transform="rotate(180 1.5 1.5) scale(0.6,0.6)" stroke-width="1.6667" fill="black" stroke="none"></use></marker><marker id="raphael-marker-endblock33-obj240" markerHeight="3" markerWidth="3" orient="auto" refX="1.5" refY="1.5"><use xlink:href="#raphael-marker-block" transform="rotate(180 1.5 1.5) scale(0.6,0.6)" stroke-width="1.6667" fill="black" stroke="none"></use></marker></defs><rect x="0" y="0" width="69" height="36" rx="20" ry="20" fill="#ffffff" stroke="#000000" style="" stroke-width="3" class="flowchart" id="st" transform="matrix(1,0,0,1,173.5,73.125)"></rect><text style="text-anchor: start; font-family: &quot;Arial&quot;; font-size: 14px;" x="10" y="18" text-anchor="start" font-family="&quot;Arial&quot;" font-size="14px" stroke="none" fill="#000000" id="stt" class="flowchartt" transform="matrix(1,0,0,1,173.5,73.125)" stroke-width="1"><tspan dy="5">Начало</tspan></text><rect x="0" y="0" width="190" height="36" rx="0" ry="0" fill="#ffffff" stroke="#000000" style="" stroke-width="3" class="flowchart" id="bg_op1" transform="matrix(1,0,0,1,113,232.25)"></rect><text style="text-anchor: start; font-family: &quot;Arial&quot;; font-size: 14px;" x="10" y="18" text-anchor="start" font-family="&quot;Arial&quot;" font-size="14px" stroke="none" fill="#000000" id="bg_op1t" class="flowchartt" transform="matrix(1,0,0,1,113,232.25)" stroke-width="1"><tspan dy="5">Инициализация массивов</tspan></text><rect x="0" y="0" width="52" height="36" rx="0" ry="0" fill="#ffffff" stroke="#000000" style="" stroke-width="3" class="flowchart" id="bg_loop" transform="matrix(1,0,0,1,182,391.375)"></rect><text style="text-anchor: start; font-family: &quot;Arial&quot;; font-size: 14px;" x="10" y="18" text-anchor="start" font-family="&quot;Arial&quot;" font-size="14px" stroke="none" fill="#000000" id="bg_loopt" class="flowchartt" transform="matrix(1,0,0,1,182,391.375)" stroke-width="1"><tspan dy="5">Цикл</tspan></text><path style="" fill="#ffffff" stroke="#000000" d="M48.375,24.1875L0,48.375L96.75,96.75L193.5,48.375L96.75,0L0,48.375" stroke-width="3" id="bg_cond" class="flowchart" transform="matrix(1,0,0,1,111.25,520.125)"></path><text style="text-anchor: start; font-family: &quot;Arial&quot;; font-size: 14px;" x="53.375" y="48.375" text-anchor="start" font-family="&quot;Arial&quot;" font-size="14px" stroke="none" fill="#000000" id="bg_condt" class="flowchartt" transform="matrix(1,0,0,1,111.25,520.125)" stroke-width="1"><tspan dy="5">все элементы?</tspan></text><rect x="0" y="0" width="228" height="36" rx="0" ry="0" fill="#ffffff" stroke="#000000" style="" stroke-width="3" class="flowchart" id="bg_op3" transform="matrix(1,0,0,1,94,740)"></rect><text style="text-anchor: start; font-family: &quot;Arial&quot;; font-size: 14px;" x="10" y="18" text-anchor="start" font-family="&quot;Arial&quot;" font-size="14px" stroke="none" fill="#000000" id="bg_op3t" class="flowchartt" transform="matrix(1,0,0,1,94,740)" stroke-width="1"><tspan dy="5">Настройка заголовков столбцов</tspan></text><rect x="0" y="0" width="250" height="36" rx="0" ry="0" fill="#ffffff" stroke="#000000" style="" stroke-width="3" class="flowchart" id="inp_op" transform="matrix(1,0,0,1,83,899.125)"></rect><text style="text-anchor: start; font-family: &quot;Arial&quot;; font-size: 14px;" x="10" y="18" text-anchor="start" font-family="&quot;Arial&quot;" font-size="14px" stroke="none" fill="#000000" id="inp_opt" class="flowchartt" transform="matrix(1,0,0,1,83,899.125)" stroke-width="1"><tspan dy="5">создание массивов для результата</tspan></text><rect x="0" y="0" width="52" height="36" rx="0" ry="0" fill="#ffffff" stroke="#000000" style="" stroke-width="3" class="flowchart" id="inp_loop" transform="matrix(1,0,0,1,182,1058.25)"></rect><text style="text-anchor: start; font-family: &quot;Arial&quot;; font-size: 14px;" x="10" y="18" text-anchor="start" font-family="&quot;Arial&quot;" font-size="14px" stroke="none" fill="#000000" id="inp_loopt" class="flowchartt" transform="matrix(1,0,0,1,182,1058.25)" stroke-width="1"><tspan dy="5">Цикл</tspan></text><path style="" fill="#ffffff" stroke="#000000" d="M48.375,24.1875L0,48.375L96.75,96.75L193.5,48.375L96.75,0L0,48.375" stroke-width="3" id="inp_cond" class="flowchart" transform="matrix(1,0,0,1,111.25,1187)"></path><text style="text-anchor: start; font-family: &quot;Arial&quot;; font-size: 14px;" x="53.375" y="48.375" text-anchor="start" font-family="&quot;Arial&quot;" font-size="14px" stroke="none" fill="#000000" id="inp_condt" class="flowchartt" transform="matrix(1,0,0,1,111.25,1187)" stroke-width="1"><tspan dy="5">все элементы?</tspan></text><rect x="0" y="0" width="52" height="36" rx="0" ry="0" fill="#ffffff" stroke="#000000" style="" stroke-width="3" class="flowchart" id="ra_op1" transform="matrix(1,0,0,1,182,1406.875)"></rect><text style="text-anchor: start; font-family: &quot;Arial&quot;; font-size: 14px;" x="10" y="18" text-anchor="start" font-family="&quot;Arial&quot;" font-size="14px" stroke="none" fill="#000000" id="ra_op1t" class="flowchartt" transform="matrix(1,0,0,1,182,1406.875)" stroke-width="1"><tspan dy="5">Цикл</tspan></text><path style="" fill="#ffffff" stroke="#000000" d="M85.125,42.5625L0,85.125L170.25,170.25L340.5,85.125L170.25,0L0,85.125" stroke-width="3" id="ra_cond" class="flowchart" transform="matrix(1,0,0,1,37.75,1498.875)"></path><text style="text-anchor: start; font-family: &quot;Arial&quot;; font-size: 14px;" x="90.125" y="85.125" text-anchor="start" font-family="&quot;Arial&quot;" font-size="14px" stroke="none" fill="#000000" id="ra_condt" class="flowchartt" transform="matrix(1,0,0,1,37.75,1498.875)" stroke-width="1"><tspan dy="5">последний элемент массива?</tspan></text><rect x="0" y="0" width="132" height="36" rx="0" ry="0" fill="#ffffff" stroke="#000000" style="" stroke-width="3" class="flowchart" id="calc_op1" transform="matrix(1,0,0,1,142,1792.25)"></rect><text style="text-anchor: start; font-family: &quot;Arial&quot;; font-size: 14px;" x="10" y="18" text-anchor="start" font-family="&quot;Arial&quot;" font-size="14px" stroke="none" fill="#000000" id="calc_op1t" class="flowchartt" transform="matrix(1,0,0,1,142,1792.25)" stroke-width="1"><tspan dy="5">Очистка графика</tspan></text><rect x="0" y="0" width="52" height="36" rx="0" ry="0" fill="#ffffff" stroke="#000000" style="" stroke-width="3" class="flowchart" id="calc_loop" transform="matrix(1,0,0,1,182,1951.375)"></rect><text style="text-anchor: start; font-family: &quot;Arial&quot;; font-size: 14px;" x="10" y="18" text-anchor="start" font-family="&quot;Arial&quot;" font-size="14px" stroke="none" fill="#000000" id="calc_loopt" class="flowchartt" transform="matrix(1,0,0,1,182,1951.375)" stroke-width="1"><tspan dy="5">Цикл</tspan></text><path style="" fill="#ffffff" stroke="#000000" d="M85.125,42.5625L0,85.125L170.25,170.25L340.5,85.125L170.25,0L0,85.125" stroke-width="3" id="calc_cond" class="flowchart" transform="matrix(1,0,0,1,37.75,2043.375)"></path><text style="text-anchor: start; font-family: &quot;Arial&quot;; font-size: 14px;" x="90.125" y="85.125" text-anchor="start" font-family="&quot;Arial&quot;" font-size="14px" stroke="none" fill="#000000" id="calc_condt" class="flowchartt" transform="matrix(1,0,0,1,37.75,2043.375)" stroke-width="1"><tspan dy="5">последний элемент массива?</tspan></text><rect x="0" y="0" width="60" height="36" rx="20" ry="20" fill="#ffffff" stroke="#000000" style="" stroke-width="3" class="flowchart" id="e" transform="matrix(1,0,0,1,178,2336.75)"></rect><text style="text-anchor: start; font-family: &quot;Arial&quot;; font-size: 14px;" x="10" y="18" text-anchor="start" font-family="&quot;Arial&quot;" font-size="14px" stroke="none" fill="#000000" id="et" class="flowchartt" transform="matrix(1,0,0,1,178,2336.75)" stroke-width="1"><tspan dy="5">Конец</tspan></text><rect x="0" y="0" width="404" height="36" rx="0" ry="0" fill="#ffffff" stroke="#000000" style="" stroke-width="3" class="flowchart" id="calc_op2" transform="matrix(1,0,0,1,434.25,2110.5)"></rect><text style="text-anchor: start; font-family: &quot;Arial&quot;; font-size: 14px;" x="10" y="18" text-anchor="start" font-family="&quot;Arial&quot;" font-size="14px" stroke="none" fill="#000000" id="calc_op2t" class="flowchartt" transform="matrix(1,0,0,1,434.25,2110.5)" stroke-width="1"><tspan dy="5">Вывод результатов расчётов элемента в таблицу и график</tspan></text><rect x="0" y="0" width="245" height="69.5999984741211" rx="0" ry="0" fill="#ffffff" stroke="#000000" style="" stroke-width="3" class="flowchart" id="ra_op2" transform="matrix(1,0,0,1,888.25,1549.2)"></rect><text style="text-anchor: start; font-family: &quot;Arial&quot;; font-size: 14px;" x="10" y="34.79999923706055" text-anchor="start" font-family="&quot;Arial&quot;" font-size="14px" stroke="none" fill="#000000" id="ra_op2t" class="flowchartt" transform="matrix(1,0,0,1,888.25,1549.2)" stroke-width="1"><tspan dy="-11.799997329711914">расчёт разностей</tspan><tspan dy="16.8" x="10">    запись в результирующий массив</tspan><tspan dy="16.8" x="10">    добавление формулы в таблицу</tspan></text><rect x="0" y="0" width="309" height="36" rx="0" ry="0" fill="#ffffff" stroke="#000000" style="" stroke-width="3" class="flowchart" id="inp_op2" transform="matrix(1,0,0,1,1183.25,1217.375)"></rect><text style="text-anchor: start; font-family: &quot;Arial&quot;; font-size: 14px;" x="10" y="18" text-anchor="start" font-family="&quot;Arial&quot;" font-size="14px" stroke="none" fill="#000000" id="inp_op2t" class="flowchartt" transform="matrix(1,0,0,1,1183.25,1217.375)" stroke-width="1"><tspan dy="5">Заполнение массива введёнными данными</tspan></text><path style="" fill="none" stroke="#000000" d="M208,109.125C208,109.125,208,205.61492016911507,208,227.75860302042565" stroke-width="3" marker-end="url(#raphael-marker-endblock33-obj213)"></path><path style="" fill="none" stroke="#000000" d="M208,268.25C208,268.25,208,364.73992016911507,208,386.88360302042565" stroke-width="3" marker-end="url(#raphael-marker-endblock33-obj214)"></path><path style="" fill="none" stroke="#000000" d="M208,427.375C208,427.375,208,497.04578894376755,208,515.6201301367837" stroke-width="3" marker-end="url(#raphael-marker-endblock33-obj215)"></path><path style="" fill="none" stroke="#000000" d="M208,616.875C208,616.875,208,713.3649201691151,208,735.5086030204257" stroke-width="3" marker-end="url(#raphael-marker-endblock33-obj216)"></path><text style="text-anchor: start; font-family: &quot;Arial&quot;; font-size: 14px;" x="213" y="626.875" text-anchor="start" font-family="&quot;Arial&quot;" font-size="14px" stroke="none" fill="#000000" stroke-width="1"><tspan dy="5">Да</tspan></text><path style="" fill="none" stroke="#000000" d="M304.75,568.5C304.75,568.5,329.75,568.5,329.75,568.5C329.75,568.5,329.75,366.375,329.75,366.375C329.75,366.375,208,366.375,208,366.375C208,366.375,208,379.6789712905884,208,386.8766276333481" stroke-width="3" marker-end="url(#raphael-marker-endblock33-obj218)"></path><text style="text-anchor: start; font-family: &quot;Arial&quot;; font-size: 14px;" x="309.75" y="558.5" text-anchor="start" font-family="&quot;Arial&quot;" font-size="14px" stroke="none" fill="#000000" stroke-width="1"><tspan dy="5">Нет</tspan></text><path style="" fill="none" stroke="#000000" d="M208,776C208,776,208,872.4899201691151,208,894.6336030204257" stroke-width="3" marker-end="url(#raphael-marker-endblock33-obj220)"></path><path style="" fill="none" stroke="#000000" d="M208,935.125C208,935.125,208,1031.614920169115,208,1053.7586030204257" stroke-width="3" marker-end="url(#raphael-marker-endblock33-obj221)"></path><path style="" fill="none" stroke="#000000" d="M208,1094.25C208,1094.25,208,1163.9207889437675,208,1182.4951301367837" stroke-width="3" marker-end="url(#raphael-marker-endblock33-obj222)"></path><path style="" fill="none" stroke="#000000" d="M208,1283.75C208,1283.75,208,1380.239920169115,208,1402.3836030204257" stroke-width="3" marker-end="url(#raphael-marker-endblock33-obj223)"></path><text style="text-anchor: start; font-family: &quot;Arial&quot;; font-size: 14px;" x="213" y="1293.75" text-anchor="start" font-family="&quot;Arial&quot;" font-size="14px" stroke="none" fill="#000000" stroke-width="1"><tspan dy="5">Да</tspan></text><path style="" fill="none" stroke="#000000" d="M304.75,1235.375C304.75,1235.375,1111.2243083491921,1235.375,1178.7586559477695,1235.375" stroke-width="3" marker-end="url(#raphael-marker-endblock33-obj225)"></path><text style="text-anchor: start; font-family: &quot;Arial&quot;; font-size: 14px;" x="309.75" y="1225.375" text-anchor="start" font-family="&quot;Arial&quot;" font-size="14px" stroke="none" fill="#000000" stroke-width="1"><tspan dy="5">Нет</tspan></text><path style="" fill="none" stroke="#000000" d="M208,1442.875C208,1442.875,208,1481.07577085495,208,1494.3751603176352" stroke-width="3" marker-end="url(#raphael-marker-endblock33-obj227)"></path><path style="" fill="none" stroke="#000000" d="M208,1669.125C208,1669.125,208,1765.614920169115,208,1787.7586030204257" stroke-width="3" marker-end="url(#raphael-marker-endblock33-obj228)"></path><text style="text-anchor: start; font-family: &quot;Arial&quot;; font-size: 14px;" x="213" y="1679.125" text-anchor="start" font-family="&quot;Arial&quot;" font-size="14px" stroke="none" fill="#000000" stroke-width="1"><tspan dy="5">Да</tspan></text><path style="" fill="none" stroke="#000000" d="M378.25,1584C378.25,1584,833.4056961238384,1584,883.7439603680032,1584" stroke-width="3" marker-end="url(#raphael-marker-endblock33-obj230)"></path><text style="text-anchor: start; font-family: &quot;Arial&quot;; font-size: 14px;" x="383.25" y="1574" text-anchor="start" font-family="&quot;Arial&quot;" font-size="14px" stroke="none" fill="#000000" stroke-width="1"><tspan dy="5">Нет</tspan></text><path style="" fill="none" stroke="#000000" d="M208,1828.25C208,1828.25,208,1924.739920169115,208,1946.8836030204257" stroke-width="3" marker-end="url(#raphael-marker-endblock33-obj232)"></path><path style="" fill="none" stroke="#000000" d="M208,1987.375C208,1987.375,208,2025.57577085495,208,2038.8751603176352" stroke-width="3" marker-end="url(#raphael-marker-endblock33-obj233)"></path><path style="" fill="none" stroke="#000000" d="M208,2213.625C208,2213.625,208,2310.114920169115,208,2332.2586030204257" stroke-width="3" marker-end="url(#raphael-marker-endblock33-obj234)"></path><text style="text-anchor: start; font-family: &quot;Arial&quot;; font-size: 14px;" x="213" y="2223.625" text-anchor="start" font-family="&quot;Arial&quot;" font-size="14px" stroke="none" fill="#000000" stroke-width="1"><tspan dy="5">Да</tspan></text><path style="" fill="none" stroke="#000000" d="M378.25,2128.5C378.25,2128.5,416.45077085494995,2128.5,429.75016031763516,2128.5" stroke-width="3" marker-end="url(#raphael-marker-endblock33-obj236)"></path><text style="text-anchor: start; font-family: &quot;Arial&quot;; font-size: 14px;" x="383.25" y="2118.5" text-anchor="start" font-family="&quot;Arial&quot;" font-size="14px" stroke="none" fill="#000000" stroke-width="1"><tspan dy="5">Нет</tspan></text><path style="" fill="none" stroke="#000000" d="M636.25,2146.5C636.25,2146.5,636.25,2171.5,636.25,2171.5C636.25,2171.5,850.375,2171.5,850.375,2171.5C850.375,2171.5,850.375,1926.375,850.375,1926.375C850.375,1926.375,208,1926.375,208,1926.375C208,1926.375,208,1939.6789712905884,208,1946.876627633348" stroke-width="3" marker-end="url(#raphael-marker-endblock33-obj238)"></path><path style="" fill="none" stroke="#000000" d="M1010.75,1618.7999992370605C1010.75,1618.7999992370605,1010.75,1643.7999992370605,1010.75,1643.7999992370605C1010.75,1643.7999992370605,1412.125,1643.7999992370605,1412.125,1643.7999992370605C1412.125,1643.7999992370605,1412.125,1381.875,1412.125,1381.875C1412.125,1381.875,208,1381.875,208,1381.875C208,1381.875,208,1395.1789712905884,208,1402.376627633348" stroke-width="3" marker-end="url(#raphael-marker-endblock33-obj239)"></path><path style="" fill="none" stroke="#000000" d="M1337.75,1253.375C1337.75,1253.375,1337.75,1278.375,1337.75,1278.375C1337.75,1278.375,1902.625,1278.375,1902.625,1278.375C1902.625,1278.375,1902.625,1033.25,1902.625,1033.25C1902.625,1033.25,208,1033.25,208,1033.25C208,1033.25,208,1046.5539712905884,208,1053.751627633348" stroke-width="3" marker-end="url(#raphael-marker-endblock33-obj240)"></path></svg>
