<svg height="2158.75" version="1.1" width="544" xmlns="http://www.w3.org/2000/svg" xmlns:xlink="http://www.w3.org/1999/xlink" style="overflow: hidden; position: relative; left: -0.900024px;" viewBox="0 0 544 2158.75" preserveAspectRatio="xMidYMid meet"><desc>Created with Raphaël @@VERSION</desc><defs><path stroke-linecap="round" d="M5,0 0,2.5 5,5z" id="raphael-marker-block"></path><marker id="raphael-marker-endblock33-obj83" markerHeight="3" markerWidth="3" orient="auto" refX="1.5" refY="1.5"><use xlink:href="#raphael-marker-block" transform="rotate(180 1.5 1.5) scale(0.6,0.6)" stroke-width="1.6667" fill="black" stroke="none"></use></marker><marker id="raphael-marker-endblock33-obj84" markerHeight="3" markerWidth="3" orient="auto" refX="1.5" refY="1.5"><use xlink:href="#raphael-marker-block" transform="rotate(180 1.5 1.5) scale(0.6,0.6)" stroke-width="1.6667" fill="black" stroke="none"></use></marker><marker id="raphael-marker-endblock33-obj85" markerHeight="3" markerWidth="3" orient="auto" refX="1.5" refY="1.5"><use xlink:href="#raphael-marker-block" transform="rotate(180 1.5 1.5) scale(0.6,0.6)" stroke-width="1.6667" fill="black" stroke="none"></use></marker><marker id="raphael-marker-endblock33-obj86" markerHeight="3" markerWidth="3" orient="auto" refX="1.5" refY="1.5"><use xlink:href="#raphael-marker-block" transform="rotate(180 1.5 1.5) scale(0.6,0.6)" stroke-width="1.6667" fill="black" stroke="none"></use></marker><marker id="raphael-marker-endblock33-obj88" markerHeight="3" markerWidth="3" orient="auto" refX="1.5" refY="1.5"><use xlink:href="#raphael-marker-block" transform="rotate(180 1.5 1.5) scale(0.6,0.6)" stroke-width="1.6667" fill="black" stroke="none"></use></marker><marker id="raphael-marker-endblock33-obj90" markerHeight="3" markerWidth="3" orient="auto" refX="1.5" refY="1.5"><use xlink:href="#raphael-marker-block" transform="rotate(180 1.5 1.5) scale(0.6,0.6)" stroke-width="1.6667" fill="black" stroke="none"></use></marker><marker id="raphael-marker-endblock33-obj91" markerHeight="3" markerWidth="3" orient="auto" refX="1.5" refY="1.5"><use xlink:href="#raphael-marker-block" transform="rotate(180 1.5 1.5) scale(0.6,0.6)" stroke-width="1.6667" fill="black" stroke="none"></use></marker><marker id="raphael-marker-endblock33-obj92" markerHeight="3" markerWidth="3" orient="auto" refX="1.5" refY="1.5"><use xlink:href="#raphael-marker-block" transform="rotate(180 1.5 1.5) scale(0.6,0.6)" stroke-width="1.6667" fill="black" stroke="none"></use></marker><marker id="raphael-marker-endblock33-obj93" markerHeight="3" markerWidth="3" orient="auto" refX="1.5" refY="1.5"><use xlink:href="#raphael-marker-block" transform="rotate(180 1.5 1.5) scale(0.6,0.6)" stroke-width="1.6667" fill="black" stroke="none"></use></marker><marker id="raphael-marker-endblock33-obj95" markerHeight="3" markerWidth="3" orient="auto" refX="1.5" refY="1.5"><use xlink:href="#raphael-marker-block" transform="rotate(180 1.5 1.5) scale(0.6,0.6)" stroke-width="1.6667" fill="black" stroke="none"></use></marker><marker id="raphael-marker-endblock33-obj97" markerHeight="3" markerWidth="3" orient="auto" refX="1.5" refY="1.5"><use xlink:href="#raphael-marker-block" transform="rotate(180 1.5 1.5) scale(0.6,0.6)" stroke-width="1.6667" fill="black" stroke="none"></use></marker><marker id="raphael-marker-endblock33-obj98" markerHeight="3" markerWidth="3" orient="auto" refX="1.5" refY="1.5"><use xlink:href="#raphael-marker-block" transform="rotate(180 1.5 1.5) scale(0.6,0.6)" stroke-width="1.6667" fill="black" stroke="none"></use></marker><marker id="raphael-marker-endblock33-obj99" markerHeight="3" markerWidth="3" orient="auto" refX="1.5" refY="1.5"><use xlink:href="#raphael-marker-block" transform="rotate(180 1.5 1.5) scale(0.6,0.6)" stroke-width="1.6667" fill="black" stroke="none"></use></marker><marker id="raphael-marker-endblock33-obj101" markerHeight="3" markerWidth="3" orient="auto" refX="1.5" refY="1.5"><use xlink:href="#raphael-marker-block" transform="rotate(180 1.5 1.5) scale(0.6,0.6)" stroke-width="1.6667" fill="black" stroke="none"></use></marker><marker id="raphael-marker-endblock33-obj103" markerHeight="3" markerWidth="3" orient="auto" refX="1.5" refY="1.5"><use xlink:href="#raphael-marker-block" transform="rotate(180 1.5 1.5) scale(0.6,0.6)" stroke-width="1.6667" fill="black" stroke="none"></use></marker><marker id="raphael-marker-endblock33-obj104" markerHeight="3" markerWidth="3" orient="auto" refX="1.5" refY="1.5"><use xlink:href="#raphael-marker-block" transform="rotate(180 1.5 1.5) scale(0.6,0.6)" stroke-width="1.6667" fill="black" stroke="none"></use></marker><marker id="raphael-marker-endblock33-obj105" markerHeight="3" markerWidth="3" orient="auto" refX="1.5" refY="1.5"><use xlink:href="#raphael-marker-block" transform="rotate(180 1.5 1.5) scale(0.6,0.6)" stroke-width="1.6667" fill="black" stroke="none"></use></marker><marker id="raphael-marker-endblock33-obj107" markerHeight="3" markerWidth="3" orient="auto" refX="1.5" refY="1.5"><use xlink:href="#raphael-marker-block" transform="rotate(180 1.5 1.5) scale(0.6,0.6)" stroke-width="1.6667" fill="black" stroke="none"></use></marker></defs><rect x="0" y="0" width="69" height="36" rx="20" ry="20" fill="#ffffff" stroke="#000000" style="" stroke-width="3" class="flowchart" id="st" transform="matrix(1,0,0,1,97.5,51)"></rect><text style="text-anchor: start; font-family: &quot;Arial&quot;; font-size: 14px;" x="10" y="18" text-anchor="start" font-family="&quot;Arial&quot;" font-size="14px" stroke="none" fill="#000000" id="stt" class="flowchartt" transform="matrix(1,0,0,1,97.5,51)" stroke-width="1"><tspan dy="5">Начало</tspan></text><rect x="0" y="0" width="190" height="36" rx="0" ry="0" fill="#ffffff" stroke="#000000" style="" stroke-width="3" class="flowchart" id="bg_op1" transform="matrix(1,0,0,1,37,188)"></rect><text style="text-anchor: start; font-family: &quot;Arial&quot;; font-size: 14px;" x="10" y="18" text-anchor="start" font-family="&quot;Arial&quot;" font-size="14px" stroke="none" fill="#000000" id="bg_op1t" class="flowchartt" transform="matrix(1,0,0,1,37,188)" stroke-width="1"><tspan dy="5">Инициализация массивов</tspan></text><rect x="0" y="0" width="52" height="36" rx="0" ry="0" fill="#ffffff" stroke="#000000" style="" stroke-width="3" class="flowchart" id="bg_loop" transform="matrix(1,0,0,1,106,325)"></rect><text style="text-anchor: start; font-family: &quot;Arial&quot;; font-size: 14px;" x="10" y="18" text-anchor="start" font-family="&quot;Arial&quot;" font-size="14px" stroke="none" fill="#000000" id="bg_loopt" class="flowchartt" transform="matrix(1,0,0,1,106,325)" stroke-width="1"><tspan dy="5">Цикл</tspan></text><path style="" fill="#ffffff" stroke="#000000" d="M48.375,24.1875L0,48.375L96.75,96.75L193.5,48.375L96.75,0L0,48.375" stroke-width="3" id="bg_cond" class="flowchart" transform="matrix(1,0,0,1,35.25,431.625)"></path><text style="text-anchor: start; font-family: &quot;Arial&quot;; font-size: 14px;" x="53.375" y="48.375" text-anchor="start" font-family="&quot;Arial&quot;" font-size="14px" stroke="none" fill="#000000" id="bg_condt" class="flowchartt" transform="matrix(1,0,0,1,35.25,431.625)" stroke-width="1"><tspan dy="5">все элементы?</tspan></text><rect x="0" y="0" width="130" height="36" rx="0" ry="0" fill="#ffffff" stroke="#000000" style="" stroke-width="3" class="flowchart" id="tl_op1" transform="matrix(1,0,0,1,67,629.375)"></rect><text style="text-anchor: start; font-family: &quot;Arial&quot;; font-size: 14px;" x="10" y="18" text-anchor="start" font-family="&quot;Arial&quot;" font-size="14px" stroke="none" fill="#000000" id="tl_op1t" class="flowchartt" transform="matrix(1,0,0,1,67,629.375)" stroke-width="1"><tspan dy="5">Ввод значения Х</tspan></text><rect x="0" y="0" width="129" height="36" rx="0" ry="0" fill="#ffffff" stroke="#000000" style="" stroke-width="3" class="flowchart" id="tl_op2" transform="matrix(1,0,0,1,67.5,766.375)"></rect><text style="text-anchor: start; font-family: &quot;Arial&quot;; font-size: 14px;" x="10" y="18" text-anchor="start" font-family="&quot;Arial&quot;" font-size="14px" stroke="none" fill="#000000" id="tl_op2t" class="flowchartt" transform="matrix(1,0,0,1,67.5,766.375)" stroke-width="1"><tspan dy="5">очистка графика</tspan></text><rect x="0" y="0" width="250" height="36" rx="0" ry="0" fill="#ffffff" stroke="#000000" style="" stroke-width="3" class="flowchart" id="tl_loop" transform="matrix(1,0,0,1,7,903.375)"></rect><text style="text-anchor: start; font-family: &quot;Arial&quot;; font-size: 14px;" x="10" y="18" text-anchor="start" font-family="&quot;Arial&quot;" font-size="14px" stroke="none" fill="#000000" id="tl_loopt" class="flowchartt" transform="matrix(1,0,0,1,7,903.375)" stroke-width="1"><tspan dy="5">Заполнение введёнными данными</tspan></text><path style="" fill="#ffffff" stroke="#000000" d="M48.375,24.1875L0,48.375L96.75,96.75L193.5,48.375L96.75,0L0,48.375" stroke-width="3" id="tl_cond" class="flowchart" transform="matrix(1,0,0,1,35.25,1010)"></path><text style="text-anchor: start; font-family: &quot;Arial&quot;; font-size: 14px;" x="53.375" y="48.375" text-anchor="start" font-family="&quot;Arial&quot;" font-size="14px" stroke="none" fill="#000000" id="tl_condt" class="flowchartt" transform="matrix(1,0,0,1,35.25,1010)" stroke-width="1"><tspan dy="5">все элементы?</tspan></text><rect x="0" y="0" width="199" height="36" rx="0" ry="0" fill="#ffffff" stroke="#000000" style="" stroke-width="3" class="flowchart" id="lagr_op1" transform="matrix(1,0,0,1,32.5,1207.75)"></rect><text style="text-anchor: start; font-family: &quot;Arial&quot;; font-size: 14px;" x="10" y="18" text-anchor="start" font-family="&quot;Arial&quot;" font-size="14px" stroke="none" fill="#000000" id="lagr_op1t" class="flowchartt" transform="matrix(1,0,0,1,32.5,1207.75)" stroke-width="1"><tspan dy="5">Инициализация результата</tspan></text><rect x="0" y="0" width="52" height="36" rx="0" ry="0" fill="#ffffff" stroke="#000000" style="" stroke-width="3" class="flowchart" id="lagr_loop" transform="matrix(1,0,0,1,106,1344.75)"></rect><text style="text-anchor: start; font-family: &quot;Arial&quot;; font-size: 14px;" x="10" y="18" text-anchor="start" font-family="&quot;Arial&quot;" font-size="14px" stroke="none" fill="#000000" id="lagr_loopt" class="flowchartt" transform="matrix(1,0,0,1,106,1344.75)" stroke-width="1"><tspan dy="5">Цикл</tspan></text><path style="" fill="#ffffff" stroke="#000000" d="M63,31.5L0,63L126,126L252,63L126,0L0,63" stroke-width="3" id="lagr_cond" class="flowchart" transform="matrix(1,0,0,1,6,1436.75)"></path><text style="text-anchor: start; font-family: &quot;Arial&quot;; font-size: 14px;" x="68" y="63" text-anchor="start" font-family="&quot;Arial&quot;" font-size="14px" stroke="none" fill="#000000" id="lagr_condt" class="flowchartt" transform="matrix(1,0,0,1,6,1436.75)" stroke-width="1"><tspan dy="5">последний элемент?</tspan></text><rect x="0" y="0" width="199" height="36" rx="0" ry="0" fill="#ffffff" stroke="#000000" style="" stroke-width="3" class="flowchart" id="ri_op1" transform="matrix(1,0,0,1,32.5,1663.75)"></rect><text style="text-anchor: start; font-family: &quot;Arial&quot;; font-size: 14px;" x="10" y="18" text-anchor="start" font-family="&quot;Arial&quot;" font-size="14px" stroke="none" fill="#000000" id="ri_op1t" class="flowchartt" transform="matrix(1,0,0,1,32.5,1663.75)" stroke-width="1"><tspan dy="5">Инициализация результата</tspan></text><rect x="0" y="0" width="52" height="36" rx="0" ry="0" fill="#ffffff" stroke="#000000" style="" stroke-width="3" class="flowchart" id="ri_loop" transform="matrix(1,0,0,1,106,1800.75)"></rect><text style="text-anchor: start; font-family: &quot;Arial&quot;; font-size: 14px;" x="10" y="18" text-anchor="start" font-family="&quot;Arial&quot;" font-size="14px" stroke="none" fill="#000000" id="ri_loopt" class="flowchartt" transform="matrix(1,0,0,1,106,1800.75)" stroke-width="1"><tspan dy="5">Цикл</tspan></text><path style="" fill="#ffffff" stroke="#000000" d="M63,31.5L0,63L126,126L252,63L126,0L0,63" stroke-width="3" id="ri_cond" class="flowchart" transform="matrix(1,0,0,1,6,1892.75)"></path><text style="text-anchor: start; font-family: &quot;Arial&quot;; font-size: 14px;" x="68" y="63" text-anchor="start" font-family="&quot;Arial&quot;" font-size="14px" stroke="none" fill="#000000" id="ri_condt" class="flowchartt" transform="matrix(1,0,0,1,6,1892.75)" stroke-width="1"><tspan dy="5">последний элемент?</tspan></text><rect x="0" y="0" width="60" height="36" rx="20" ry="20" fill="#ffffff" stroke="#000000" style="" stroke-width="3" class="flowchart" id="e" transform="matrix(1,0,0,1,102,2119.75)"></rect><text style="text-anchor: start; font-family: &quot;Arial&quot;; font-size: 14px;" x="10" y="18" text-anchor="start" font-family="&quot;Arial&quot;" font-size="14px" stroke="none" fill="#000000" id="et" class="flowchartt" transform="matrix(1,0,0,1,102,2119.75)" stroke-width="1"><tspan dy="5">Конец</tspan></text><rect x="0" y="0" width="202" height="36" rx="0" ry="0" fill="#ffffff" stroke="#000000" style="" stroke-width="3" class="flowchart" id="ri_op2" transform="matrix(1,0,0,1,339,1937.75)"></rect><text style="text-anchor: start; font-family: &quot;Arial&quot;; font-size: 14px;" x="10" y="18" text-anchor="start" font-family="&quot;Arial&quot;" font-size="14px" stroke="none" fill="#000000" id="ri_op2t" class="flowchartt" transform="matrix(1,0,0,1,339,1937.75)" stroke-width="1"><tspan dy="5">вычисление коэффициента</tspan></text><path style="" fill="none" stroke="#000000" d="M132,87C132,87,132,163.89720845222473,132,183.49698521592654" stroke-width="3" marker-end="url(#raphael-marker-endblock33-obj83)"></path><path style="" fill="none" stroke="#000000" d="M132,224C132,224,132,300.89720845222473,132,320.49698521592654" stroke-width="3" marker-end="url(#raphael-marker-endblock33-obj84)"></path><path style="" fill="none" stroke="#000000" d="M132,361C132,361,132,411.5703176558018,132,427.1266165440611" stroke-width="3" marker-end="url(#raphael-marker-endblock33-obj85)"></path><path style="" fill="none" stroke="#000000" d="M132,528.375C132,528.375,132,605.2722084522247,132,624.8719852159265" stroke-width="3" marker-end="url(#raphael-marker-endblock33-obj86)"></path><text style="text-anchor: start; font-family: &quot;Arial&quot;; font-size: 14px;" x="137" y="538.375" text-anchor="start" font-family="&quot;Arial&quot;" font-size="14px" stroke="none" fill="#000000" stroke-width="1"><tspan dy="5">yes</tspan></text><path style="" fill="none" stroke="#000000" d="M228.75,480C228.75,480,253.75,480,253.75,480C253.75,480,253.75,300,253.75,300C253.75,300,132,300,132,300C132,300,132,313.3039712905884,132,320.5016276333481" stroke-width="3" marker-end="url(#raphael-marker-endblock33-obj88)"></path><text style="text-anchor: start; font-family: &quot;Arial&quot;; font-size: 14px;" x="233.75" y="470" text-anchor="start" font-family="&quot;Arial&quot;" font-size="14px" stroke="none" fill="#000000" stroke-width="1"><tspan dy="5">no</tspan></text><path style="" fill="none" stroke="#000000" d="M132,665.375C132,665.375,132,742.2722084522247,132,761.8719852159265" stroke-width="3" marker-end="url(#raphael-marker-endblock33-obj90)"></path><path style="" fill="none" stroke="#000000" d="M132,802.375C132,802.375,132,879.2722084522247,132,898.8719852159265" stroke-width="3" marker-end="url(#raphael-marker-endblock33-obj91)"></path><path style="" fill="none" stroke="#000000" d="M132,939.375C132,939.375,132,989.9453176558018,132,1005.5016165440611" stroke-width="3" marker-end="url(#raphael-marker-endblock33-obj92)"></path><path style="" fill="none" stroke="#000000" d="M132,1106.75C132,1106.75,132,1183.6472084522247,132,1203.2469852159265" stroke-width="3" marker-end="url(#raphael-marker-endblock33-obj93)"></path><text style="text-anchor: start; font-family: &quot;Arial&quot;; font-size: 14px;" x="137" y="1116.75" text-anchor="start" font-family="&quot;Arial&quot;" font-size="14px" stroke="none" fill="#000000" stroke-width="1"><tspan dy="5">yes</tspan></text><path style="" fill="none" stroke="#000000" d="M228.75,1058.375C228.75,1058.375,253.75,1058.375,253.75,1058.375C253.75,1058.375,253.75,878.375,253.75,878.375C253.75,878.375,132,878.375,132,878.375C132,878.375,132,891.6789712905884,132,898.8766276333481" stroke-width="3" marker-end="url(#raphael-marker-endblock33-obj95)"></path><text style="text-anchor: start; font-family: &quot;Arial&quot;; font-size: 14px;" x="233.75" y="1048.375" text-anchor="start" font-family="&quot;Arial&quot;" font-size="14px" stroke="none" fill="#000000" stroke-width="1"><tspan dy="5">no</tspan></text><path style="" fill="none" stroke="#000000" d="M132,1243.75C132,1243.75,132,1320.6472084522247,132,1340.2469852159265" stroke-width="3" marker-end="url(#raphael-marker-endblock33-obj97)"></path><path style="" fill="none" stroke="#000000" d="M132,1380.75C132,1380.75,132,1418.95077085495,132,1432.2501603176352" stroke-width="3" marker-end="url(#raphael-marker-endblock33-obj98)"></path><path style="" fill="none" stroke="#000000" d="M132,1562.75C132,1562.75,132,1639.6472084522247,132,1659.2469852159265" stroke-width="3" marker-end="url(#raphael-marker-endblock33-obj99)"></path><text style="text-anchor: start; font-family: &quot;Arial&quot;; font-size: 14px;" x="137" y="1572.75" text-anchor="start" font-family="&quot;Arial&quot;" font-size="14px" stroke="none" fill="#000000" stroke-width="1"><tspan dy="5">yes</tspan></text><path style="" fill="none" stroke="#000000" d="M258,1499.75C258,1499.75,283,1499.75,283,1499.75C283,1499.75,283,1319.75,283,1319.75C283,1319.75,132,1319.75,132,1319.75C132,1319.75,132,1333.0539712905884,132,1340.251627633348" stroke-width="3" marker-end="url(#raphael-marker-endblock33-obj101)"></path><text style="text-anchor: start; font-family: &quot;Arial&quot;; font-size: 14px;" x="263" y="1489.75" text-anchor="start" font-family="&quot;Arial&quot;" font-size="14px" stroke="none" fill="#000000" stroke-width="1"><tspan dy="5">no</tspan></text><path style="" fill="none" stroke="#000000" d="M132,1699.75C132,1699.75,132,1776.6472084522247,132,1796.2469852159265" stroke-width="3" marker-end="url(#raphael-marker-endblock33-obj103)"></path><path style="" fill="none" stroke="#000000" d="M132,1836.75C132,1836.75,132,1874.95077085495,132,1888.2501603176352" stroke-width="3" marker-end="url(#raphael-marker-endblock33-obj104)"></path><path style="" fill="none" stroke="#000000" d="M132,2018.75C132,2018.75,132,2095.6472084522247,132,2115.2469852159265" stroke-width="3" marker-end="url(#raphael-marker-endblock33-obj105)"></path><text style="text-anchor: start; font-family: &quot;Arial&quot;; font-size: 14px;" x="137" y="2028.75" text-anchor="start" font-family="&quot;Arial&quot;" font-size="14px" stroke="none" fill="#000000" stroke-width="1"><tspan dy="5">yes</tspan></text><path style="" fill="none" stroke="#000000" d="M258,1955.75C258,1955.75,317.4811499118805,1955.75,334.500658626901,1955.75" stroke-width="3" marker-end="url(#raphael-marker-endblock33-obj107)"></path><text style="text-anchor: start; font-family: &quot;Arial&quot;; font-size: 14px;" x="263" y="1945.75" text-anchor="start" font-family="&quot;Arial&quot;" font-size="14px" stroke="none" fill="#000000" stroke-width="1"><tspan dy="5">no</tspan></text></svg>
