<svg height="546" version="1.1" width="286" xmlns="http://www.w3.org/2000/svg" xmlns:xlink="http://www.w3.org/1999/xlink" style="overflow: hidden; position: relative; left: -0.900024px;" viewBox="0 0 286 546" preserveAspectRatio="xMidYMid meet"><desc>Created with Raphaël @@VERSION</desc><defs><path stroke-linecap="round" d="M5,0 0,2.5 5,5z" id="raphael-marker-block"></path><marker id="raphael-marker-endblock33-obj258" markerHeight="3" markerWidth="3" orient="auto" refX="1.5" refY="1.5"><use xlink:href="#raphael-marker-block" transform="rotate(180 1.5 1.5) scale(0.6,0.6)" stroke-width="1.6667" fill="black" stroke="none"></use></marker><marker id="raphael-marker-endblock33-obj259" markerHeight="3" markerWidth="3" orient="auto" refX="1.5" refY="1.5"><use xlink:href="#raphael-marker-block" transform="rotate(180 1.5 1.5) scale(0.6,0.6)" stroke-width="1.6667" fill="black" stroke="none"></use></marker><marker id="raphael-marker-endblock33-obj260" markerHeight="3" markerWidth="3" orient="auto" refX="1.5" refY="1.5"><use xlink:href="#raphael-marker-block" transform="rotate(180 1.5 1.5) scale(0.6,0.6)" stroke-width="1.6667" fill="black" stroke="none"></use></marker><marker id="raphael-marker-endblock33-obj262" markerHeight="3" markerWidth="3" orient="auto" refX="1.5" refY="1.5"><use xlink:href="#raphael-marker-block" transform="rotate(180 1.5 1.5) scale(0.6,0.6)" stroke-width="1.6667" fill="black" stroke="none"></use></marker></defs><rect x="0" y="0" width="252" height="36" rx="20" ry="20" fill="#ffffff" stroke="#000000" style="" stroke-width="3" class="flowchart" id="sum_start" transform="matrix(1,0,0,1,6,51)"></rect><text style="text-anchor: start; font-family: &quot;Arial&quot;; font-size: 14px;" x="10" y="18" text-anchor="start" font-family="&quot;Arial&quot;" font-size="14px" stroke="none" fill="#000000" id="sum_startt" class="flowchartt" transform="matrix(1,0,0,1,6,51)" stroke-width="1"><tspan dy="5">Расчет коэффициентов Сумма X^n</tspan></text><rect x="0" y="0" width="52" height="36" rx="0" ry="0" fill="#ffffff" stroke="#000000" style="" stroke-width="3" class="flowchart" id="sumkoef_loop" transform="matrix(1,0,0,1,106,188)"></rect><text style="text-anchor: start; font-family: &quot;Arial&quot;; font-size: 14px;" x="10" y="18" text-anchor="start" font-family="&quot;Arial&quot;" font-size="14px" stroke="none" fill="#000000" id="sumkoef_loopt" class="flowchartt" transform="matrix(1,0,0,1,106,188)" stroke-width="1"><tspan dy="5">Цикл</tspan></text><path style="" fill="#ffffff" stroke="#000000" d="M63,31.5L0,63L126,126L252,63L126,0L0,63" stroke-width="3" id="sumkoef_cond" class="flowchart" transform="matrix(1,0,0,1,6,280)"></path><text style="text-anchor: start; font-family: &quot;Arial&quot;; font-size: 14px;" x="68" y="63" text-anchor="start" font-family="&quot;Arial&quot;" font-size="14px" stroke="none" fill="#000000" id="sumkoef_condt" class="flowchartt" transform="matrix(1,0,0,1,6,280)" stroke-width="1"><tspan dy="5">последний элемент?</tspan></text><rect x="0" y="0" width="60" height="36" rx="20" ry="20" fill="#ffffff" stroke="#000000" style="" stroke-width="3" class="flowchart" id="e" transform="matrix(1,0,0,1,102,507)"></rect><text style="text-anchor: start; font-family: &quot;Arial&quot;; font-size: 14px;" x="10" y="18" text-anchor="start" font-family="&quot;Arial&quot;" font-size="14px" stroke="none" fill="#000000" id="et" class="flowchartt" transform="matrix(1,0,0,1,102,507)" stroke-width="1"><tspan dy="5">Конец</tspan></text><path style="" fill="none" stroke="#000000" d="M132,87C132,87,132,163.89720845222473,132,183.49698521592654" stroke-width="3" marker-end="url(#raphael-marker-endblock33-obj258)"></path><path style="" fill="none" stroke="#000000" d="M132,224C132,224,132,262.20077085494995,132,275.50016031763516" stroke-width="3" marker-end="url(#raphael-marker-endblock33-obj259)"></path><path style="" fill="none" stroke="#000000" d="M132,406C132,406,132,482.89720845222473,132,502.49698521592654" stroke-width="3" marker-end="url(#raphael-marker-endblock33-obj260)"></path><text style="text-anchor: start; font-family: &quot;Arial&quot;; font-size: 14px;" x="137" y="416" text-anchor="start" font-family="&quot;Arial&quot;" font-size="14px" stroke="none" fill="#000000" stroke-width="1"><tspan dy="5">yes</tspan></text><path style="" fill="none" stroke="#000000" d="M258,343C258,343,283,343,283,343C283,343,283,163,283,163C283,163,132,163,132,163C132,163,132,176.30397129058838,132,183.5016276333481" stroke-width="3" marker-end="url(#raphael-marker-endblock33-obj262)"></path><text style="text-anchor: start; font-family: &quot;Arial&quot;; font-size: 14px;" x="263" y="333" text-anchor="start" font-family="&quot;Arial&quot;" font-size="14px" stroke="none" fill="#000000" stroke-width="1"><tspan dy="5">no</tspan></text></svg>
