<svg height="683" version="1.1" width="296" xmlns="http://www.w3.org/2000/svg" xmlns:xlink="http://www.w3.org/1999/xlink" style="overflow: hidden; position: relative; left: -0.900024px;" viewBox="0 0 296 683" preserveAspectRatio="xMidYMid meet"><desc>Created with Raphaël @@VERSION</desc><defs><path stroke-linecap="round" d="M5,0 0,2.5 5,5z" id="raphael-marker-block"></path><marker id="raphael-marker-endblock33-obj297" markerHeight="3" markerWidth="3" orient="auto" refX="1.5" refY="1.5"><use xlink:href="#raphael-marker-block" transform="rotate(180 1.5 1.5) scale(0.6,0.6)" stroke-width="1.6667" fill="black" stroke="none"></use></marker><marker id="raphael-marker-endblock33-obj298" markerHeight="3" markerWidth="3" orient="auto" refX="1.5" refY="1.5"><use xlink:href="#raphael-marker-block" transform="rotate(180 1.5 1.5) scale(0.6,0.6)" stroke-width="1.6667" fill="black" stroke="none"></use></marker><marker id="raphael-marker-endblock33-obj299" markerHeight="3" markerWidth="3" orient="auto" refX="1.5" refY="1.5"><use xlink:href="#raphael-marker-block" transform="rotate(180 1.5 1.5) scale(0.6,0.6)" stroke-width="1.6667" fill="black" stroke="none"></use></marker><marker id="raphael-marker-endblock33-obj300" markerHeight="3" markerWidth="3" orient="auto" refX="1.5" refY="1.5"><use xlink:href="#raphael-marker-block" transform="rotate(180 1.5 1.5) scale(0.6,0.6)" stroke-width="1.6667" fill="black" stroke="none"></use></marker><marker id="raphael-marker-endblock33-obj302" markerHeight="3" markerWidth="3" orient="auto" refX="1.5" refY="1.5"><use xlink:href="#raphael-marker-block" transform="rotate(180 1.5 1.5) scale(0.6,0.6)" stroke-width="1.6667" fill="black" stroke="none"></use></marker></defs><rect x="0" y="0" width="272" height="36" rx="20" ry="20" fill="#ffffff" stroke="#000000" style="" stroke-width="3" class="flowchart" id="s" transform="matrix(1,0,0,1,6,51)"></rect><text style="text-anchor: start; font-family: &quot;Arial&quot;; font-size: 14px;" x="10" y="18" text-anchor="start" font-family="&quot;Arial&quot;" font-size="14px" stroke="none" fill="#000000" id="st" class="flowchartt" transform="matrix(1,0,0,1,6,51)" stroke-width="1"><tspan dy="5">Расчет коэффициентов Сумма(X^n)*Y</tspan></text><rect x="0" y="0" width="199" height="36" rx="0" ry="0" fill="#ffffff" stroke="#000000" style="" stroke-width="3" class="flowchart" id="sumkoefxy_op" transform="matrix(1,0,0,1,42.5,188)"></rect><text style="text-anchor: start; font-family: &quot;Arial&quot;; font-size: 14px;" x="10" y="18" text-anchor="start" font-family="&quot;Arial&quot;" font-size="14px" stroke="none" fill="#000000" id="sumkoefxy_opt" class="flowchartt" transform="matrix(1,0,0,1,42.5,188)" stroke-width="1"><tspan dy="5">Инициализация результата</tspan></text><rect x="0" y="0" width="52" height="36" rx="0" ry="0" fill="#ffffff" stroke="#000000" style="" stroke-width="3" class="flowchart" id="sumkoefxy_loop" transform="matrix(1,0,0,1,116,325)"></rect><text style="text-anchor: start; font-family: &quot;Arial&quot;; font-size: 14px;" x="10" y="18" text-anchor="start" font-family="&quot;Arial&quot;" font-size="14px" stroke="none" fill="#000000" id="sumkoefxy_loopt" class="flowchartt" transform="matrix(1,0,0,1,116,325)" stroke-width="1"><tspan dy="5">Цикл</tspan></text><path style="" fill="#ffffff" stroke="#000000" d="M63,31.5L0,63L126,126L252,63L126,0L0,63" stroke-width="3" id="sumkoefxy_cond" class="flowchart" transform="matrix(1,0,0,1,16,417)"></path><text style="text-anchor: start; font-family: &quot;Arial&quot;; font-size: 14px;" x="68" y="63" text-anchor="start" font-family="&quot;Arial&quot;" font-size="14px" stroke="none" fill="#000000" id="sumkoefxy_condt" class="flowchartt" transform="matrix(1,0,0,1,16,417)" stroke-width="1"><tspan dy="5">последний элемент?</tspan></text><rect x="0" y="0" width="60" height="36" rx="20" ry="20" fill="#ffffff" stroke="#000000" style="" stroke-width="3" class="flowchart" id="e" transform="matrix(1,0,0,1,112,644)"></rect><text style="text-anchor: start; font-family: &quot;Arial&quot;; font-size: 14px;" x="10" y="18" text-anchor="start" font-family="&quot;Arial&quot;" font-size="14px" stroke="none" fill="#000000" id="et" class="flowchartt" transform="matrix(1,0,0,1,112,644)" stroke-width="1"><tspan dy="5">Конец</tspan></text><path style="" fill="none" stroke="#000000" d="M142,87C142,87,142,163.89720845222473,142,183.49698521592654" stroke-width="3" marker-end="url(#raphael-marker-endblock33-obj297)"></path><path style="" fill="none" stroke="#000000" d="M142,224C142,224,142,300.89720845222473,142,320.49698521592654" stroke-width="3" marker-end="url(#raphael-marker-endblock33-obj298)"></path><path style="" fill="none" stroke="#000000" d="M142,361C142,361,142,399.20077085494995,142,412.50016031763516" stroke-width="3" marker-end="url(#raphael-marker-endblock33-obj299)"></path><path style="" fill="none" stroke="#000000" d="M142,543C142,543,142,619.8972084522247,142,639.4969852159265" stroke-width="3" marker-end="url(#raphael-marker-endblock33-obj300)"></path><text style="text-anchor: start; font-family: &quot;Arial&quot;; font-size: 14px;" x="147" y="553" text-anchor="start" font-family="&quot;Arial&quot;" font-size="14px" stroke="none" fill="#000000" stroke-width="1"><tspan dy="5">yes</tspan></text><path style="" fill="none" stroke="#000000" d="M268,480C268,480,293,480,293,480C293,480,293,300,293,300C293,300,142,300,142,300C142,300,142,313.3039712905884,142,320.5016276333481" stroke-width="3" marker-end="url(#raphael-marker-endblock33-obj302)"></path><text style="text-anchor: start; font-family: &quot;Arial&quot;; font-size: 14px;" x="273" y="470" text-anchor="start" font-family="&quot;Arial&quot;" font-size="14px" stroke="none" fill="#000000" stroke-width="1"><tspan dy="5">no</tspan></text></svg>
